<?xml version="1.0" encoding="utf-8"?>
<svg version="1.1" xmlns:xlink="http://www.w3.org/1999/xlink" width="30px" height="30px" xmlns="http://www.w3.org/2000/svg">
  <defs>
    <filter x="31px" y="1594px" width="30px" height="30px" filterUnits="userSpaceOnUse" id="filter149">
      <feOffset dx="1" dy="1" in="SourceAlpha" result="shadowOffsetInner" />
      <feGaussianBlur stdDeviation="2.5" in="shadowOffsetInner" result="shadowGaussian" />
      <feComposite in2="shadowGaussian" operator="atop" in="SourceAlpha" result="shadowComposite" />
      <feColorMatrix type="matrix" values="0 0 0 0 0  0 0 0 0 0  0 0 0 0 0  0 0 0 0.698039215686274 0  " in="shadowComposite" />
    </filter>
    <g id="widget150">
      <path d="M 45 1598  C 50.6 1598  55 1602.4  55 1608  C 55 1613.6  50.6 1618  45 1618  C 39.4 1618  35 1613.6  35 1608  C 35 1602.4  39.4 1598  45 1598  Z " fill-rule="nonzero" fill="#ec808d" stroke="none" />
      <path d="M 45 1598.5  C 50.32 1598.5  54.5 1602.68  54.5 1608  C 54.5 1613.32  50.32 1617.5  45 1617.5  C 39.68 1617.5  35.5 1613.32  35.5 1608  C 35.5 1602.68  39.68 1598.5  45 1598.5  Z " stroke-width="1" stroke="#ffffff" fill="none" />
    </g>
  </defs>
  <g transform="matrix(1 0 0 1 -31 -1594 )">
    <use xlink:href="#widget150" filter="url(#filter149)" />
    <use xlink:href="#widget150" />
  </g>
</svg>