<?xml version="1.0" encoding="utf-8"?>
<svg version="1.1" xmlns:xlink="http://www.w3.org/1999/xlink" width="343px" height="384px" xmlns="http://www.w3.org/2000/svg">
  <g transform="matrix(1 0 0 1 -824 -1863 )">
    <path d="M 824 1863  L 1167 1863  L 1167 2247  L 824 2247  L 824 1863  " fill-rule="nonzero" fill="#cccccc" stroke="none" />
    <path d="M 848 1887  L 1143 1887  L 1143 2223  L 848 2223  L 848 1887  " fill-rule="nonzero" fill="#ffffff" stroke="none" />
    <path d="M 1028.085 1972.05  C 1013.679 1972.05  1002.36 1960.731  1002.36 1946.325  C 1002.36 1931.919  1013.679 1920.6  1028.085 1920.6  C 1042.491 1920.6  1053.81 1931.919  1053.81 1946.325  C 1053.81 1960.731  1042.491 1972.05  1028.085 1972.05  " fill-rule="nonzero" fill="#cccccc" stroke="none" />
    <path d="M 857 2215  L 857 2039.55  L 926.5 1959.8  L 1023.8 2023.6  L 1079.4 2007.65  L 1135 2023.6  L 1135 2215  L 857 2215  " fill-rule="nonzero" fill="#169bd5" stroke="none" />
  </g>
</svg>