<?xml version="1.0" encoding="utf-8"?>
<svg version="1.1" xmlns:xlink="http://www.w3.org/1999/xlink" width="40px" height="40px" xmlns="http://www.w3.org/2000/svg">
  <defs>
    <filter x="996px" y="397px" width="40px" height="40px" filterUnits="userSpaceOnUse" id="filter136">
      <feOffset dx="1" dy="1" in="SourceAlpha" result="shadowOffsetInner" />
      <feGaussianBlur stdDeviation="2.5" in="shadowOffsetInner" result="shadowGaussian" />
      <feComposite in2="shadowGaussian" operator="atop" in="SourceAlpha" result="shadowComposite" />
      <feColorMatrix type="matrix" values="0 0 0 0 0  0 0 0 0 0  0 0 0 0 0  0 0 0 0.698039215686274 0  " in="shadowComposite" />
    </filter>
    <g id="widget137">
      <path d="M 1015 401  C 1023.4 401  1030 407.6  1030 416  C 1030 424.4  1023.4 431  1015 431  C 1006.6 431  1000 424.4  1000 416  C 1000 407.6  1006.6 401  1015 401  Z " fill-rule="nonzero" fill="#009dd9" stroke="none" />
      <path d="M 1015 401.5  C 1023.12 401.5  1029.5 407.88  1029.5 416  C 1029.5 424.12  1023.12 430.5  1015 430.5  C 1006.88 430.5  1000.5 424.12  1000.5 416  C 1000.5 407.88  1006.88 401.5  1015 401.5  Z " stroke-width="1" stroke="#ffffff" fill="none" />
    </g>
  </defs>
  <g transform="matrix(1 0 0 1 -996 -397 )">
    <use xlink:href="#widget137" filter="url(#filter136)" />
    <use xlink:href="#widget137" />
  </g>
</svg>