<?xml version="1.0" encoding="utf-8"?>
<svg version="1.1" xmlns:xlink="http://www.w3.org/1999/xlink" width="87px" height="87px" xmlns="http://www.w3.org/2000/svg">
  <defs>
    <filter x="73px" y="4894px" width="87px" height="87px" filterUnits="userSpaceOnUse" id="filter140">
      <feOffset dx="1" dy="1" in="SourceAlpha" result="shadowOffsetInner" />
      <feGaussianBlur stdDeviation="2.5" in="shadowOffsetInner" result="shadowGaussian" />
      <feComposite in2="shadowGaussian" operator="atop" in="SourceAlpha" result="shadowComposite" />
      <feColorMatrix type="matrix" values="0 0 0 0 0  0 0 0 0 0  0 0 0 0 0  0 0 0 0.698039215686274 0  " in="shadowComposite" />
    </filter>
    <g id="widget141">
      <path d="M 115.5 4898  C 137.06 4898  154 4914.94  154 4936.5  C 154 4958.06  137.06 4975  115.5 4975  C 93.94 4975  77 4958.06  77 4936.5  C 77 4914.94  93.94 4898  115.5 4898  Z " fill-rule="nonzero" fill="#009dd9" stroke="none" />
      <path d="M 115.5 4898.5  C 136.78 4898.5  153.5 4915.22  153.5 4936.5  C 153.5 4957.78  136.78 4974.5  115.5 4974.5  C 94.22 4974.5  77.5 4957.78  77.5 4936.5  C 77.5 4915.22  94.22 4898.5  115.5 4898.5  Z " stroke-width="1" stroke="#ffffff" fill="none" />
    </g>
  </defs>
  <g transform="matrix(1 0 0 1 -73 -4894 )">
    <use xlink:href="#widget141" filter="url(#filter140)" />
    <use xlink:href="#widget141" />
  </g>
</svg>