<?xml version="1.0" encoding="utf-8"?>
<svg version="1.1" xmlns:xlink="http://www.w3.org/1999/xlink" width="39px" height="39px" xmlns="http://www.w3.org/2000/svg">
  <defs>
    <filter x="95px" y="5092px" width="39px" height="39px" filterUnits="userSpaceOnUse" id="filter142">
      <feOffset dx="1" dy="1" in="SourceAlpha" result="shadowOffsetInner" />
      <feGaussianBlur stdDeviation="2.5" in="shadowOffsetInner" result="shadowGaussian" />
      <feComposite in2="shadowGaussian" operator="atop" in="SourceAlpha" result="shadowComposite" />
      <feColorMatrix type="matrix" values="0 0 0 0 0  0 0 0 0 0  0 0 0 0 0  0 0 0 0.698039215686274 0  " in="shadowComposite" />
    </filter>
    <g id="widget143">
      <path d="M 113.5 5096  C 121.62 5096  128 5102.38  128 5110.5  C 128 5118.62  121.62 5125  113.5 5125  C 105.38 5125  99 5118.62  99 5110.5  C 99 5102.38  105.38 5096  113.5 5096  Z " fill-rule="nonzero" fill="#009dd9" stroke="none" />
      <path d="M 113.5 5096.5  C 121.34 5096.5  127.5 5102.66  127.5 5110.5  C 127.5 5118.34  121.34 5124.5  113.5 5124.5  C 105.66 5124.5  99.5 5118.34  99.5 5110.5  C 99.5 5102.66  105.66 5096.5  113.5 5096.5  Z " stroke-width="1" stroke="#ffffff" fill="none" />
    </g>
  </defs>
  <g transform="matrix(1 0 0 1 -95 -5092 )">
    <use xlink:href="#widget143" filter="url(#filter142)" />
    <use xlink:href="#widget143" />
  </g>
</svg>