<?xml version="1.0" encoding="utf-8"?>
<svg version="1.1" xmlns:xlink="http://www.w3.org/1999/xlink" width="41px" height="46px" xmlns="http://www.w3.org/2000/svg">
  <defs>
    <filter x="120px" y="6167px" width="41px" height="46px" filterUnits="userSpaceOnUse" id="filter146">
      <feOffset dx="1" dy="1" in="SourceAlpha" result="shadowOffsetInner" />
      <feGaussianBlur stdDeviation="2.5" in="shadowOffsetInner" result="shadowGaussian" />
      <feComposite in2="shadowGaussian" operator="atop" in="SourceAlpha" result="shadowComposite" />
      <feColorMatrix type="matrix" values="0 0 0 0 0  0 0 0 0 0  0 0 0 0 0  0 0 0 0.698039215686274 0  " in="shadowComposite" />
    </filter>
    <g id="widget147">
      <path d="M 139.5 6171  C 148.18 6171  155 6178.92  155 6189  C 155 6199.08  148.18 6207  139.5 6207  C 130.82 6207  124 6199.08  124 6189  C 124 6178.92  130.82 6171  139.5 6171  Z " fill-rule="nonzero" fill="#009dd9" stroke="none" />
      <path d="M 139.5 6171.5  C 147.9 6171.5  154.5 6179.2  154.5 6189  C 154.5 6198.8  147.9 6206.5  139.5 6206.5  C 131.1 6206.5  124.5 6198.8  124.5 6189  C 124.5 6179.2  131.1 6171.5  139.5 6171.5  Z " stroke-width="1" stroke="#ffffff" fill="none" />
    </g>
  </defs>
  <g transform="matrix(1 0 0 1 -120 -6167 )">
    <use xlink:href="#widget147" filter="url(#filter146)" />
    <use xlink:href="#widget147" />
  </g>
</svg>