<?xml version="1.0" encoding="utf-8"?>
<svg version="1.1" xmlns:xlink="http://www.w3.org/1999/xlink" width="12px" height="12px" viewBox="554 6064  12 12" xmlns="http://www.w3.org/2000/svg">
  <path d="M 560 6064  C 563.36 6064  566 6066.64  566 6070  C 566 6073.36  563.36 6076  560 6076  C 556.64 6076  554 6073.36  554 6070  C 554 6066.64  556.64 6064  560 6064  Z " fill-rule="nonzero" fill="#ffffff" stroke="none" />
  <path d="M 560 6064.5  C 563.08 6064.5  565.5 6066.92  565.5 6070  C 565.5 6073.08  563.08 6075.5  560 6075.5  C 556.92 6075.5  554.5 6073.08  554.5 6070  C 554.5 6066.92  556.92 6064.5  560 6064.5  Z " stroke-width="1" stroke="#797979" fill="none" />
  <path d="M 560 6073  C 558.32 6073  557 6071.68  557 6070  C 557 6068.32  558.32 6067  560 6067  C 561.68 6067  563 6068.32  563 6070  C 563 6071.68  561.68 6073  560 6073  " fill-rule="nonzero" fill="#797979" stroke="none" />
</svg>