<?xml version="1.0" encoding="utf-8"?>
<svg version="1.1" xmlns:xlink="http://www.w3.org/1999/xlink" width="53px" height="53px" xmlns="http://www.w3.org/2000/svg">
  <defs>
    <filter x="380px" y="493px" width="53px" height="53px" filterUnits="userSpaceOnUse" id="filter126">
      <feOffset dx="1" dy="1" in="SourceAlpha" result="shadowOffsetInner" />
      <feGaussianBlur stdDeviation="2.5" in="shadowOffsetInner" result="shadowGaussian" />
      <feComposite in2="shadowGaussian" operator="atop" in="SourceAlpha" result="shadowComposite" />
      <feColorMatrix type="matrix" values="0 0 0 0 0  0 0 0 0 0  0 0 0 0 0  0 0 0 0.698039215686274 0  " in="shadowComposite" />
    </filter>
    <g id="widget127">
      <path d="M 405.5 497  C 417.54 497  427 506.46  427 518.5  C 427 530.54  417.54 540  405.5 540  C 393.46 540  384 530.54  384 518.5  C 384 506.46  393.46 497  405.5 497  Z " fill-rule="nonzero" fill="#009dd9" stroke="none" />
      <path d="M 405.5 497.5  C 417.26 497.5  426.5 506.74  426.5 518.5  C 426.5 530.26  417.26 539.5  405.5 539.5  C 393.74 539.5  384.5 530.26  384.5 518.5  C 384.5 506.74  393.74 497.5  405.5 497.5  Z " stroke-width="1" stroke="#ffffff" fill="none" />
    </g>
  </defs>
  <g transform="matrix(1 0 0 1 -380 -493 )">
    <use xlink:href="#widget127" filter="url(#filter126)" />
    <use xlink:href="#widget127" />
  </g>
</svg>