<?xml version="1.0" encoding="utf-8"?>
<svg version="1.1" xmlns:xlink="http://www.w3.org/1999/xlink" width="68px" height="68px" xmlns="http://www.w3.org/2000/svg">
  <defs>
    <filter x="307px" y="488px" width="68px" height="68px" filterUnits="userSpaceOnUse" id="filter128">
      <feOffset dx="1" dy="1" in="SourceAlpha" result="shadowOffsetInner" />
      <feGaussianBlur stdDeviation="2.5" in="shadowOffsetInner" result="shadowGaussian" />
      <feComposite in2="shadowGaussian" operator="atop" in="SourceAlpha" result="shadowComposite" />
      <feColorMatrix type="matrix" values="0 0 0 0 0  0 0 0 0 0  0 0 0 0 0  0 0 0 0.698039215686274 0  " in="shadowComposite" />
    </filter>
    <g id="widget129">
      <path d="M 340 492  C 356.24 492  369 504.76  369 521  C 369 537.24  356.24 550  340 550  C 323.76 550  311 537.24  311 521  C 311 504.76  323.76 492  340 492  Z " fill-rule="nonzero" fill="#009dd9" stroke="none" />
      <path d="M 340 492.5  C 355.96 492.5  368.5 505.04  368.5 521  C 368.5 536.96  355.96 549.5  340 549.5  C 324.04 549.5  311.5 536.96  311.5 521  C 311.5 505.04  324.04 492.5  340 492.5  Z " stroke-width="1" stroke="#ffffff" fill="none" />
    </g>
  </defs>
  <g transform="matrix(1 0 0 1 -307 -488 )">
    <use xlink:href="#widget129" filter="url(#filter128)" />
    <use xlink:href="#widget129" />
  </g>
</svg>