<?xml version="1.0" encoding="utf-8"?>
<svg version="1.1" xmlns:xlink="http://www.w3.org/1999/xlink" width="40px" height="40px" xmlns="http://www.w3.org/2000/svg">
  <defs>
    <filter x="94px" y="727px" width="40px" height="40px" filterUnits="userSpaceOnUse" id="filter134">
      <feOffset dx="1" dy="1" in="SourceAlpha" result="shadowOffsetInner" />
      <feGaussianBlur stdDeviation="2.5" in="shadowOffsetInner" result="shadowGaussian" />
      <feComposite in2="shadowGaussian" operator="atop" in="SourceAlpha" result="shadowComposite" />
      <feColorMatrix type="matrix" values="0 0 0 0 0  0 0 0 0 0  0 0 0 0 0  0 0 0 0.698039215686274 0  " in="shadowComposite" />
    </filter>
    <g id="widget135">
      <path d="M 113 731  C 121.4 731  128 737.6  128 746  C 128 754.4  121.4 761  113 761  C 104.6 761  98 754.4  98 746  C 98 737.6  104.6 731  113 731  Z " fill-rule="nonzero" fill="#ec808d" stroke="none" />
      <path d="M 113 731.5  C 121.12 731.5  127.5 737.88  127.5 746  C 127.5 754.12  121.12 760.5  113 760.5  C 104.88 760.5  98.5 754.12  98.5 746  C 98.5 737.88  104.88 731.5  113 731.5  Z " stroke-width="1" stroke="#ffffff" fill="none" />
    </g>
  </defs>
  <g transform="matrix(1 0 0 1 -94 -727 )">
    <use xlink:href="#widget135" filter="url(#filter134)" />
    <use xlink:href="#widget135" />
  </g>
</svg>